<svg clip-rule="evenodd" fill-rule="evenodd" stroke-linejoin="round" stroke-miterlimit="1.41421" viewBox="0 0 200 200" xmlns="http://www.w3.org/2000/svg"><g fill-rule="nonzero"><path d="m78.068 30.927 56.306 37.866c.315.212.603.459.853.745.474.542 1.217 1.501 1.57 2.54.325.955.349 2.075.33 2.705-.01.301-.058.595-.143.883l-11.106 37.937c-.061.212-.149.413-.264.602-.314.511-1.018 1.538-1.923 2.094-.848.522-2.189.71-2.833.772-.229.023-.455.019-.684-.009l-6.554-.529s-5.527-1.913-12.773-2.101c-2.866-.075-37.334 14.106-37.334 14.106l-15.483 16.489c-.134.143-.276.27-.434.386-.514.378-1.715 1.181-2.942 1.4-2.061.369-4.502-.8-4.502-.8l-20.544-8.593c-.185-.078-.356-.175-.515-.296-.56-.428-1.934-1.535-2.752-2.717-1.229-1.773-1.701-4.002-1.701-4.002l-10.469-41.377c-.026-.102-.043-.2-.053-.304-.052-.568-.175-2.515.417-4.04.438-1.125 1.265-2.114 1.626-2.513.101-.113.21-.215.329-.31l63.924-50.503c.192-.151.393-.288.607-.405.581-.317 1.797-.899 3.047-.995 1.13-.085 2.349.253 3.039.489.342.117.661.278.961.48" fill="#1d8592"/><path d="m118.463 72.298c-7.508 3.898-15.6 8.676-22.539 13.871-27.789 20.801-31.038 38.738-32.415 42.364-4.73-11.686-11.653-22.019-33.656-35.585-7.883-4.858-16.143-8.132-24.075-10.325.152-.192.288-.344.384-.456s.208-.216.328-.312l48.647-38.434c6.875 7.611 16.272 15.767 31.999 22.17 10.757 4.386 21.562 6.227 31.327 6.707" fill="#208692"/><path d="m63.509 128.533-15.479 16.487c-.136.144-.28.272-.432.392-.521.377-1.721 1.177-2.946 1.401-2.057.368-4.498-.8-4.498-.8l-20.546-8.596c-.184-.08-.36-.176-.52-.296-.56-.425-1.929-1.537-2.745-2.714-1.233-1.777-1.705-4.002-1.705-4.002l-10.469-41.379c-.024-.104-.04-.2-.056-.304-.048-.568-.168-2.513.424-4.042.313-.816.833-1.561 1.241-2.057 7.932 2.193 16.192 5.467 24.075 10.325 22.003 13.566 28.926 23.899 33.656 35.585" fill="#3f6575"/><path d="m135.222 69.537c-.248-.288-.536-.536-.848-.744l-3.578-2.41-52.728-35.456c-.304-.208-.625-.368-.961-.48-.688-.24-1.913-.577-3.041-.489-1.249.088-2.465.673-3.05.993-.208.112-.408.256-.6.4l-15.279 12.07c6.875 7.611 16.272 15.767 31.999 22.17 10.757 4.386 21.562 6.227 31.327 6.707 6.675.328 12.862.024 18.208-.544-.384-.912-1.016-1.737-1.449-2.217" fill="#409da5"/><path d="m137.127 74.779c-.008.305-.064.593-.144.881l-11.109 37.938c-.056.216-.144.416-.264.6-.312.512-1.016 1.545-1.921 2.097-.848.52-2.193.712-2.833.776-.232.016-.456.016-.681-.016l-6.555-.528s-5.53-1.913-12.774-2.097c-2.865-.08-37.337 14.103-37.337 14.103 1.377-3.626 4.626-21.563 32.415-42.364 6.939-5.195 15.031-9.973 22.539-13.871 6.675.328 12.862.024 18.208-.544.048.104.088.208.128.32.32.953.344 2.073.328 2.705" fill="#78b3bb"/><path d="m82.183 97.64c-5.96 2.276-12.662-.722-14.938-6.683-2.278-5.964.721-12.667 6.682-14.943 5.964-2.277 12.667.723 14.943 6.686 2.277 5.961-.723 12.663-6.687 14.94m33.074-20.836c-4.568 1.744-6.865 6.878-5.121 11.446.468 1.227 1.187 2.285 2.07 3.15l-7.252 14.04c-.017-.005-.034-.014-.053-.021-2.804-.939-5.78-.862-8.502.191l-4.954-6.623c4.432-4.895 6.04-12.038 3.527-18.617-3.56-9.328-14.047-14.019-23.375-10.458-2.698 1.03-4.991 2.651-6.826 4.644l-6.237-3.848c.482-2.274.192-4.626-.86-6.732-1.228-2.472-3.347-4.316-5.967-5.194-2.616-.877-5.414-.686-7.879.546-2.472 1.226-4.317 3.342-5.197 5.959-.88 2.62-.687 5.425.543 7.898 1.231 2.472 3.35 4.316 5.968 5.193 2.29.767 4.722.713 6.944-.135.318-.122.633-.261.941-.414.809-.401 1.543-.905 2.205-1.483l6.053 3.734c-1.262 3.134-1.659 6.615-1.012 10.07l-17.83 6.757c-3.936-5.636-11.62-7.463-17.733-3.996-6.449 3.691-8.707 11.943-5.034 18.395l.002.005c3.338 5.844 10.419 8.247 16.518 5.919.637-.244 1.264-.538 1.874-.887 3.129-1.784 5.378-4.679 6.33-8.153.471-1.716.596-3.471.387-5.185l17.823-6.756c4.453 7.307 13.628 10.653 21.903 7.494.603-.23 1.186-.492 1.75-.778l4.862 6.499c-.919 1.143-1.648 2.442-2.128 3.873-1.068 3.181-.832 6.587.663 9.592v.002c1.499 3.004 4.074 5.245 7.256 6.311 2.784.934 5.739.869 8.445-.164.386-.148.769-.316 1.144-.503 6.201-3.086 8.737-10.641 5.652-16.842-.477-.955-1.072-1.824-1.751-2.612l7.837-15.173c1.108.024 2.241-.157 3.34-.576 4.568-1.744 6.865-6.879 5.121-11.448-1.744-4.567-6.878-6.864-11.447-5.12" fill="#fff"/><path d="m42.634 70.78c1.214 3.177 4.772 4.769 7.95 3.557 3.177-1.214 4.769-4.772 3.557-7.95-1.214-3.177-4.772-4.77-7.95-3.556-3.177 1.212-4.77 4.771-3.557 7.949" fill="#1d8592"/><path d="m93.849 120.068c1.496 3.918 5.885 5.883 9.804 4.387 3.919-1.497 5.882-5.886 4.386-9.805s-5.885-5.883-9.803-4.387c-3.919 1.497-5.883 5.886-4.387 9.805" fill="#78b3bb"/><path d="m23.919 107.495c1.567 4.104 6.165 6.161 10.269 4.594s6.161-6.165 4.594-10.269-6.164-6.161-10.269-4.594c-4.104 1.567-6.161 6.164-4.594 10.269" fill="#3f6575"/><path d="m66.992 91.242c2.347 6.146 9.231 9.226 15.377 6.88s9.226-9.23 6.88-15.376c-2.347-6.147-9.231-9.226-15.377-6.881-6.146 2.347-9.226 9.231-6.88 15.377" fill="#1d8592"/><path d="m113.732 86.957c.989 2.591 3.89 3.889 6.481 2.9s3.889-3.891 2.9-6.482c-.989-2.59-3.891-3.889-6.482-2.899-2.59.989-3.889 3.89-2.899 6.481" fill="#78b3bb"/><g fill="#182946"><path d="m75.825 136.353h8.263l8.124 21.54h.093l8.263-21.54h7.752l-13.555 32.867h-5.803z"/><path d="m130.758 144.895c-.713-.866-1.586-1.532-2.623-1.997-1.037-.463-2.236-.695-3.597-.695-1.364 0-2.623.262-3.784.788-1.16.527-2.166 1.262-3.018 2.205-.851.946-1.516 2.066-1.996 3.366s-.719 2.708-.719 4.224c0 1.548.239 2.964.719 4.248s1.138 2.399 1.974 3.343c.835.944 1.817 1.678 2.947 2.205 1.13.526 2.344.788 3.644.788 1.486 0 2.801-.309 3.946-.927 1.145-.62 2.089-1.487 2.831-2.6l6.035 4.503c-1.392 1.949-3.156 3.388-5.291 4.316-2.136.929-4.334 1.394-6.592 1.394-2.569 0-4.937-.403-7.103-1.207-2.166-.805-4.038-1.958-5.617-3.459s-2.809-3.319-3.69-5.455c-.882-2.135-1.324-4.518-1.324-7.149 0-2.63.442-5.012 1.324-7.148.881-2.135 2.111-3.954 3.69-5.455s3.451-2.653 5.617-3.459c2.166-.804 4.534-1.207 7.103-1.207.928 0 1.895.087 2.901.256 1.005.17 1.996.441 2.971.812.974.371 1.911.867 2.808 1.486s1.701 1.377 2.415 2.274z"/><path d="m148.204 149.955h4.271c.649 0 1.339-.024 2.065-.07.727-.047 1.385-.186 1.974-.418.587-.232 1.075-.595 1.462-1.091.386-.494.581-1.191.581-2.089 0-.835-.171-1.5-.512-1.996-.341-.495-.774-.874-1.299-1.137-.526-.263-1.13-.441-1.811-.534-.68-.093-1.346-.139-1.996-.139h-4.735zm-7.242-13.602h12.72c1.672 0 3.256.162 4.758.487 1.5.325 2.816.867 3.946 1.626 1.13.758 2.026 1.779 2.692 3.063.665 1.285.998 2.886.998 4.805 0 2.321-.603 4.294-1.81 5.918-1.206 1.625-2.971 2.654-5.292 3.088l8.356 13.88h-8.681l-6.87-13.138h-3.575v13.138h-7.242z"/><path d="m178.476 150.279h4.827c.651 0 1.277-.061 1.881-.185s1.145-.332 1.624-.628c.48-.293.866-.695 1.161-1.206.294-.511.441-1.152.441-1.927 0-.836-.194-1.508-.58-2.019-.388-.51-.883-.905-1.486-1.184-.603-.278-1.277-.456-2.019-.534-.743-.076-1.455-.115-2.135-.115h-3.714zm-7.242-13.926h12.209c1.701 0 3.312.155 4.827.464 1.517.309 2.839.843 3.97 1.602 1.129.758 2.026 1.779 2.692 3.064.665 1.284.998 2.901.998 4.85 0 1.92-.31 3.529-.928 4.828-.62 1.3-1.47 2.337-2.554 3.111-1.083.774-2.367 1.323-3.852 1.648-1.486.325-3.096.487-4.828.487h-5.292v12.813h-7.242z"/></g></g></svg>